<?xml version="1.0" encoding="UTF-8"?>
<svg width="100%" height="100%" xmlns="http://www.w3.org/2000/svg">
  <line x1="48.6816" y1="0.03069999999996753" x2="41.16750000000002" y2="0.10719999999997754" stroke="black" stroke-width="1" />
  <line x1="41.16750000000002" y1="0.10719999999997754" x2="52.69889999999998" y2="0.012299999999981992" stroke="black" stroke-width="1" />
  <line x1="52.69889999999998" y1="0.012299999999981992" x2="61.48040000000003" y2="9.999999997489795e-05" stroke="black" stroke-width="1" />
  <line x1="61.48040000000003" y1="9.999999997489795e-05" x2="66.30600000000004" y2="0.0" stroke="black" stroke-width="1" />
  <line x1="66.30600000000004" y1="0.0" x2="71.49509999999998" y2="9.999999997489795e-05" stroke="black" stroke-width="1" />
  <line x1="71.49509999999998" y1="9.999999997489795e-05" x2="34.366499999999974" y2="0.39599999999995816" stroke="black" stroke-width="1" />
  <line x1="34.366499999999974" y1="0.39599999999995816" x2="82.73979999999995" y2="9.999999997489795e-05" stroke="black" stroke-width="1" />
  <line x1="82.73979999999995" y1="9.999999997489795e-05" x2="88.67870000000005" y2="9.999999997489795e-05" stroke="black" stroke-width="1" />
  <line x1="88.67870000000005" y1="9.999999997489795e-05" x2="94.77380000000005" y2="9.999999997489795e-05" stroke="black" stroke-width="1" />
  <line x1="94.77380000000005" y1="9.999999997489795e-05" x2="100.94389999999999" y2="9.999999997489795e-05" stroke="black" stroke-width="1" />
  <line x1="100.94389999999999" y1="9.999999997489795e-05" x2="107.16359999999997" y2="9.999999997489795e-05" stroke="black" stroke-width="1" />
  <line x1="107.16359999999997" y1="9.999999997489795e-05" x2="113.3587" y2="0.0" stroke="black" stroke-width="1" />
  <line x1="113.3587" y1="0.0" x2="119.48220000000003" y2="9.999999997489795e-05" stroke="black" stroke-width="1" />
  <line x1="119.48220000000003" y1="9.999999997489795e-05" x2="125.46119999999996" y2="0.10829999999998563" stroke="black" stroke-width="1" />
  <line x1="125.46119999999996" y1="0.10829999999998563" x2="134.9334" y2="1.1872999999999934" stroke="black" stroke-width="1" />
  <line x1="134.9334" y1="1.1872999999999934" x2="140.32119999999998" y2="2.165499999999952" stroke="black" stroke-width="1" />
  <line x1="140.32119999999998" y1="2.165499999999952" x2="145.38350000000003" y2="3.789600000000007" stroke="black" stroke-width="1" />
  <line x1="145.38350000000003" y1="3.789600000000007" x2="148.7224" y2="6.0634000000000015" stroke="black" stroke-width="1" />
  <line x1="148.7224" y1="6.0634000000000015" x2="150.64549999999997" y2="6.0634000000000015" stroke="black" stroke-width="1" />
  <line x1="150.64549999999997" y1="6.0634000000000015" x2="154.231" y2="9.09499999999997" stroke="black" stroke-width="1" />
  <line x1="154.231" y1="9.09499999999997" x2="157.16290000000004" y2="12.992899999999963" stroke="black" stroke-width="1" />
  <line x1="157.16290000000004" y1="12.992899999999963" x2="159.49649999999997" y2="17.648699999999963" stroke="black" stroke-width="1" />
  <line x1="159.49649999999997" y1="17.648699999999963" x2="160.89419999999996" y2="22.954099999999983" stroke="black" stroke-width="1" />
  <line x1="160.89419999999996" y1="22.954099999999983" x2="161.2871" y2="22.954099999999983" stroke="black" stroke-width="1" />
  <line x1="161.2871" y1="22.954099999999983" x2="162.58979999999997" y2="28.80079999999998" stroke="black" stroke-width="1" />
  <line x1="162.58979999999997" y1="28.80079999999998" x2="163.46000000000004" y2="35.080799999999954" stroke="black" stroke-width="1" />
  <line x1="163.46000000000004" y1="35.080799999999954" x2="161.38070000000005" y2="41.68539999999996" stroke="black" stroke-width="1" />
  <line x1="161.38070000000005" y1="41.68539999999996" x2="163.95280000000002" y2="41.68539999999996" stroke="black" stroke-width="1" />
  <line x1="163.95280000000002" y1="41.68539999999996" x2="164.12339999999995" y2="48.50669999999997" stroke="black" stroke-width="1" />
  <line x1="164.12339999999995" y1="48.50669999999997" x2="162.38430000000005" y2="55.436199999999985" stroke="black" stroke-width="1" />
  <line x1="162.38430000000005" y1="55.436199999999985" x2="164.0272" y2="55.436199999999985" stroke="black" stroke-width="1" />
  <line x1="164.0272" y1="55.436199999999985" x2="163.7192" y2="62.365700000000004" stroke="black" stroke-width="1" />
  <line x1="163.7192" y1="62.365700000000004" x2="161.62810000000002" y2="69.31369999999993" stroke="black" stroke-width="1" />
  <line x1="161.62810000000002" y1="69.31369999999993" x2="163.25369999999998" y2="69.32460000000003" stroke="black" stroke-width="1" />
  <line x1="163.25369999999998" y1="69.32460000000003" x2="162.68449999999996" y2="76.34219999999993" stroke="black" stroke-width="1" />
  <line x1="162.68449999999996" y1="76.34219999999993" x2="159.47490000000005" y2="83.1798" stroke="black" stroke-width="1" />
  <line x1="159.47490000000005" y1="83.1798" x2="162.06600000000003" y2="83.44799999999998" stroke="black" stroke-width="1" />
  <line x1="162.06600000000003" y1="83.44799999999998" x2="161.452" y2="90.67129999999997" stroke="black" stroke-width="1" />
  <line x1="161.452" y1="90.67129999999997" x2="156.83119999999997" y2="96.30399999999997" stroke="black" stroke-width="1" />
  <line x1="156.83119999999997" y1="96.30399999999997" x2="160.9148" y2="98.03329999999994" stroke="black" stroke-width="1" />
  <line x1="160.9148" y1="98.03329999999994" x2="157.34529999999995" y2="104.10789999999997" stroke="black" stroke-width="1" />
  <line x1="157.34529999999995" y1="104.10789999999997" x2="160.52660000000003" y2="105.55529999999999" stroke="black" stroke-width="1" />
  <line x1="160.52660000000003" y1="105.55529999999999" x2="156.5892" y2="110.47719999999993" stroke="black" stroke-width="1" />
  <line x1="156.5892" y1="110.47719999999993" x2="160.35950000000003" y2="113.25839999999994" stroke="black" stroke-width="1" />
  <line x1="160.35950000000003" y1="113.25839999999994" x2="27.732899999999972" y2="0.7669999999999959" stroke="black" stroke-width="1" />
  <line x1="27.732899999999972" y1="0.7669999999999959" x2="21.912799999999947" y2="0.8797999999999888" stroke="black" stroke-width="1" />
  <line x1="21.912799999999947" y1="0.8797999999999888" x2="111.64930000000004" y2="336.16999999999996" stroke="black" stroke-width="1" />
  <line x1="111.64930000000004" y1="336.16999999999996" x2="113.17309999999998" y2="334.0679" stroke="black" stroke-width="1" />
  <line x1="113.17309999999998" y1="334.0679" x2="112.64620000000002" y2="336.16999999999996" stroke="black" stroke-width="1" />
  <line x1="112.64620000000002" y1="336.16999999999996" x2="113.59410000000003" y2="332.06039999999996" stroke="black" stroke-width="1" />
  <line x1="113.59410000000003" y1="332.06039999999996" x2="113.928" y2="330.1553" stroke="black" stroke-width="1" />
  <line x1="113.928" y1="330.1553" x2="114.1934" y2="328.3597" stroke="black" stroke-width="1" />
  <line x1="114.1934" y1="328.3597" x2="114.4094" y2="326.68129999999996" stroke="black" stroke-width="1" />
  <line x1="114.4094" y1="326.68129999999996" x2="114.59450000000004" y2="325.1273" stroke="black" stroke-width="1" />
  <line x1="114.59450000000004" y1="325.1273" x2="109.74360000000001" y2="345.2904" stroke="black" stroke-width="1" />
  <line x1="109.74360000000001" y1="345.2904" x2="107.47140000000002" y2="347.53689999999995" stroke="black" stroke-width="1" />
  <line x1="107.47140000000002" y1="347.53689999999995" x2="110.56200000000001" y2="342.92729999999995" stroke="black" stroke-width="1" />
  <line x1="110.56200000000001" y1="342.92729999999995" x2="111.32730000000004" y2="340.6116999999999" stroke="black" stroke-width="1" />
  <line x1="111.32730000000004" y1="340.6116999999999" x2="111.1019" y2="340.6116999999999" stroke="black" stroke-width="1" />
  <line x1="111.1019" y1="340.6116999999999" x2="112.02650000000006" y2="338.35529999999994" stroke="black" stroke-width="1" />
  <line x1="112.02650000000006" y1="338.35529999999994" x2="108.85350000000005" y2="347.53689999999995" stroke="black" stroke-width="1" />
  <line x1="108.85350000000005" y1="347.53689999999995" x2="107.87289999999996" y2="349.5028" stroke="black" stroke-width="1" />
  <line x1="107.87289999999996" y1="349.5028" x2="106.78309999999999" y2="351.02419999999995" stroke="black" stroke-width="1" />
  <line x1="106.78309999999999" y1="351.02419999999995" x2="156.94600000000003" y2="119.57190000000003" stroke="black" stroke-width="1" />
  <line x1="156.94600000000003" y1="119.57190000000003" x2="160.48580000000004" y2="121.16399999999999" stroke="black" stroke-width="1" />
  <line x1="160.48580000000004" y1="121.16399999999999" x2="157.9864" y2="125.6155" stroke="black" stroke-width="1" />
  <line x1="157.9864" y1="125.6155" x2="157.16449999999998" y2="128.65359999999998" stroke="black" stroke-width="1" />
  <line x1="157.16449999999998" y1="128.65359999999998" x2="160.82950000000005" y2="129.16970000000003" stroke="black" stroke-width="1" />
  <line x1="160.82950000000005" y1="129.16970000000003" x2="158.21550000000002" y2="134.8293" stroke="black" stroke-width="1" />
  <line x1="158.21550000000002" y1="134.8293" x2="161.31420000000003" y2="137.1735" stroke="black" stroke-width="1" />
  <line x1="161.31420000000003" y1="137.1735" x2="159.1879" y2="141.5168" stroke="black" stroke-width="1" />
  <line x1="159.1879" y1="141.5168" x2="161.86400000000003" y2="145.07299999999998" stroke="black" stroke-width="1" />
  <line x1="161.86400000000003" y1="145.07299999999998" x2="161.0294" y2="146.44409999999993" stroke="black" stroke-width="1" />
  <line x1="161.0294" y1="146.44409999999993" x2="158.82259999999997" y2="151.1046" stroke="black" stroke-width="1" />
  <line x1="158.82259999999997" y1="151.1046" x2="158.37480000000005" y2="195.83979999999997" stroke="black" stroke-width="1" />
  <line x1="158.37480000000005" y1="195.83979999999997" x2="162.7459" y2="190.30269999999996" stroke="black" stroke-width="1" />
  <line x1="162.7459" y1="190.30269999999996" x2="162.18619999999999" y2="195.0195" stroke="black" stroke-width="1" />
  <line x1="162.18619999999999" y1="195.0195" x2="161.4991" y2="199.442" stroke="black" stroke-width="1" />
  <line x1="161.4991" y1="199.442" x2="163.15449999999998" y2="185.22619999999995" stroke="black" stroke-width="1" />
  <line x1="163.15449999999998" y1="185.22619999999995" x2="155.94709999999998" y2="188.97879999999998" stroke="black" stroke-width="1" />
  <line x1="155.94709999999998" y1="188.97879999999998" x2="163.38819999999998" y2="179.72429999999997" stroke="black" stroke-width="1" />
  <line x1="163.38819999999998" y1="179.72429999999997" x2="157.88289999999995" y2="179.4688" stroke="black" stroke-width="1" />
  <line x1="157.88289999999995" y1="179.4688" x2="163.423" y2="173.73169999999993" stroke="black" stroke-width="1" />
  <line x1="163.423" y1="173.73169999999993" x2="158.6209" y2="173.04909999999995" stroke="black" stroke-width="1" />
  <line x1="158.6209" y1="173.04909999999995" x2="163.2351" y2="167.18279999999993" stroke="black" stroke-width="1" />
  <line x1="163.2351" y1="167.18279999999993" x2="157.80359999999996" y2="167.8324" stroke="black" stroke-width="1" />
  <line x1="157.80359999999996" y1="167.8324" x2="161.5104" y2="162.18319999999994" stroke="black" stroke-width="1" />
  <line x1="161.5104" y1="162.18319999999994" x2="162.8773" y2="160.16499999999996" stroke="black" stroke-width="1" />
  <line x1="162.8773" y1="160.16499999999996" x2="160.32759999999996" y2="156.34199999999998" stroke="black" stroke-width="1" />
  <line x1="160.32759999999996" y1="156.34199999999998" x2="162.4026" y2="152.76599999999996" stroke="black" stroke-width="1" />
  <line x1="162.4026" y1="152.76599999999996" x2="158.62130000000002" y2="203.62249999999995" stroke="black" stroke-width="1" />
  <line x1="158.62130000000002" y1="203.62249999999995" x2="160.70860000000005" y2="203.63569999999993" stroke="black" stroke-width="1" />
  <line x1="160.70860000000005" y1="203.63569999999993" x2="159.83849999999995" y2="207.66599999999994" stroke="black" stroke-width="1" />
  <line x1="159.83849999999995" y1="207.66599999999994" x2="158.62570000000005" y2="211.54359999999997" stroke="black" stroke-width="1" />
  <line x1="158.62570000000005" y1="211.54359999999997" x2="158.91269999999997" y2="211.59849999999994" stroke="black" stroke-width="1" />
  <line x1="158.91269999999997" y1="211.59849999999994" x2="157.95500000000004" y2="215.49869999999999" stroke="black" stroke-width="1" />
  <line x1="157.95500000000004" y1="215.49869999999999" x2="156.96609999999998" y2="219.34489999999994" stroke="black" stroke-width="1" />
  <line x1="156.96609999999998" y1="219.34489999999994" x2="155.80700000000002" y2="223.03319999999997" stroke="black" stroke-width="1" />
  <line x1="155.80700000000002" y1="223.03319999999997" x2="155.94629999999995" y2="223.11569999999995" stroke="black" stroke-width="1" />
  <line x1="155.94629999999995" y1="223.11569999999995" x2="154.8963" y2="226.7894" stroke="black" stroke-width="1" />
  <line x1="154.8963" y1="226.7894" x2="153.81650000000002" y2="230.3446" stroke="black" stroke-width="1" />
  <line x1="153.81650000000002" y1="230.3446" x2="152.70749999999998" y2="233.75959999999998" stroke="black" stroke-width="1" />
  <line x1="152.70749999999998" y1="233.75959999999998" x2="151.56989999999996" y2="237.01289999999995" stroke="black" stroke-width="1" />
  <line x1="151.56989999999996" y1="237.01289999999995" x2="150.40419999999995" y2="240.08299999999997" stroke="black" stroke-width="1" />
  <line x1="150.40419999999995" y1="240.08299999999997" x2="149.21079999999995" y2="242.94819999999993" stroke="black" stroke-width="1" />
  <line x1="149.21079999999995" y1="242.94819999999993" x2="147.9819" y2="245.63530000000003" stroke="black" stroke-width="1" />
  <line x1="147.9819" y1="245.63530000000003" x2="146.70979999999997" y2="248.17099999999994" stroke="black" stroke-width="1" />
  <line x1="146.70979999999997" y1="248.17099999999994" x2="145.38639999999998" y2="250.58209999999997" stroke="black" stroke-width="1" />
  <line x1="145.38639999999998" y1="250.58209999999997" x2="143.9977" y2="252.8764" stroke="black" stroke-width="1" />
  <line x1="143.9977" y1="252.8764" x2="141.0303" y2="257.3346" stroke="black" stroke-width="1" />
  <line x1="141.0303" y1="257.3346" x2="139.42330000000004" y2="259.51429999999993" stroke="black" stroke-width="1" />
  <line x1="139.42330000000004" y1="259.51429999999993" x2="135.97310000000004" y2="263.86469999999997" stroke="black" stroke-width="1" />
  <line x1="135.97310000000004" y1="263.86469999999997" x2="134.20029999999997" y2="265.96399999999994" stroke="black" stroke-width="1" />
  <line x1="134.20029999999997" y1="265.96399999999994" x2="130.736" y2="269.83119999999997" stroke="black" stroke-width="1" />
  <line x1="130.736" y1="269.83119999999997" x2="126.2722" y2="274.2668" stroke="black" stroke-width="1" />
  <line x1="126.2722" y1="274.2668" x2="11.563099999999963" y2="4.463499999999954" stroke="black" stroke-width="1" />
  <line x1="11.563099999999963" y1="4.463499999999954" x2="122.34580000000005" y2="278.21590000000003" stroke="black" stroke-width="1" />
  <line x1="122.34580000000005" y1="278.21590000000003" x2="121.8315" y2="279.9759" stroke="black" stroke-width="1" />
  <line x1="121.8315" y1="279.9759" x2="120.56510000000003" y2="290.6912" stroke="black" stroke-width="1" />
  <line x1="120.56510000000003" y1="290.6912" x2="120.40639999999996" y2="292.38839999999993" stroke="black" stroke-width="1" />
  <line x1="120.40639999999996" y1="292.38839999999993" x2="120.7183" y2="289.05920000000003" stroke="black" stroke-width="1" />
  <line x1="120.7183" y1="289.05920000000003" x2="121.0113" y2="286.0461" stroke="black" stroke-width="1" />
  <line x1="121.0113" y1="286.0461" x2="121.15239999999994" y2="284.69269999999995" stroke="black" stroke-width="1" />
  <line x1="121.15239999999994" y1="284.69269999999995" x2="121.42740000000003" y2="282.36119999999994" stroke="black" stroke-width="1" />
  <line x1="121.42740000000003" y1="282.36119999999994" x2="120.24149999999997" y2="294.13699999999994" stroke="black" stroke-width="1" />
  <line x1="120.24149999999997" y1="294.13699999999994" x2="120.07209999999998" y2="295.91769999999997" stroke="black" stroke-width="1" />
  <line x1="120.07209999999998" y1="295.91769999999997" x2="119.89999999999998" y2="297.71119999999996" stroke="black" stroke-width="1" />
  <line x1="119.89999999999998" y1="297.71119999999996" x2="119.72640000000001" y2="299.4983" stroke="black" stroke-width="1" />
  <line x1="119.72640000000001" y1="299.4983" x2="119.55340000000001" y2="301.2596" stroke="black" stroke-width="1" />
  <line x1="119.55340000000001" y1="301.2596" x2="119.38229999999999" y2="302.9761" stroke="black" stroke-width="1" />
  <line x1="119.38229999999999" y1="302.9761" x2="119.05290000000002" y2="306.1971" stroke="black" stroke-width="1" />
  <line x1="119.05290000000002" y1="306.1971" x2="118.89760000000001" y2="307.6631" stroke="black" stroke-width="1" />
  <line x1="118.89760000000001" y1="307.6631" x2="118.74850000000004" y2="309.0393" stroke="black" stroke-width="1" />
  <line x1="118.74850000000004" y1="309.0393" x2="118.6046" y2="310.3384" stroke="black" stroke-width="1" />
  <line x1="118.6046" y1="310.3384" x2="118.32889999999998" y2="312.7567" stroke="black" stroke-width="1" />
  <line x1="118.32889999999998" y1="312.7567" x2="118.17819999999995" y2="313.86019999999996" stroke="black" stroke-width="1" />
  <line x1="118.17819999999995" y1="313.86019999999996" x2="117.76089999999999" y2="315.7125" stroke="black" stroke-width="1" />
  <line x1="117.76089999999999" y1="315.7125" x2="116.73770000000002" y2="317.5322" stroke="black" stroke-width="1" />
  <line x1="116.73770000000002" y1="317.5322" x2="115.69269999999995" y2="319.45719999999994" stroke="black" stroke-width="1" />
  <line x1="115.69269999999995" y1="319.45719999999994" x2="115.15350000000001" y2="321.2863" stroke="black" stroke-width="1" />
  <line x1="115.15350000000001" y1="321.2863" x2="114.76769999999999" y2="323.7052" stroke="black" stroke-width="1" />
  <circle cx="48.6816" cy="0.03069999999996753" r="1" fill="black" />
  <circle cx="41.16750000000002" cy="0.10719999999997754" r="1" fill="black" />
  <circle cx="52.69889999999998" cy="0.012299999999981992" r="1" fill="black" />
  <circle cx="61.48040000000003" cy="9.999999997489795e-05" r="1" fill="black" />
  <circle cx="66.30600000000004" cy="0.0" r="1" fill="black" />
  <circle cx="71.49509999999998" cy="9.999999997489795e-05" r="1" fill="black" />
  <circle cx="34.366499999999974" cy="0.39599999999995816" r="1" fill="black" />
  <circle cx="82.73979999999995" cy="9.999999997489795e-05" r="1" fill="black" />
  <circle cx="88.67870000000005" cy="9.999999997489795e-05" r="1" fill="black" />
  <circle cx="94.77380000000005" cy="9.999999997489795e-05" r="1" fill="black" />
  <circle cx="100.94389999999999" cy="9.999999997489795e-05" r="1" fill="black" />
  <circle cx="107.16359999999997" cy="9.999999997489795e-05" r="1" fill="black" />
  <circle cx="113.3587" cy="0.0" r="1" fill="black" />
  <circle cx="119.48220000000003" cy="9.999999997489795e-05" r="1" fill="black" />
  <circle cx="125.46119999999996" cy="0.10829999999998563" r="1" fill="black" />
  <circle cx="134.9334" cy="1.1872999999999934" r="1" fill="black" />
  <circle cx="140.32119999999998" cy="2.165499999999952" r="1" fill="black" />
  <circle cx="145.38350000000003" cy="3.789600000000007" r="1" fill="black" />
  <circle cx="148.7224" cy="6.0634000000000015" r="1" fill="black" />
  <circle cx="150.64549999999997" cy="6.0634000000000015" r="1" fill="black" />
  <circle cx="154.231" cy="9.09499999999997" r="1" fill="black" />
  <circle cx="157.16290000000004" cy="12.992899999999963" r="1" fill="black" />
  <circle cx="159.49649999999997" cy="17.648699999999963" r="1" fill="black" />
  <circle cx="160.89419999999996" cy="22.954099999999983" r="1" fill="black" />
  <circle cx="161.2871" cy="22.954099999999983" r="1" fill="black" />
  <circle cx="162.58979999999997" cy="28.80079999999998" r="1" fill="black" />
  <circle cx="163.46000000000004" cy="35.080799999999954" r="1" fill="black" />
  <circle cx="161.38070000000005" cy="41.68539999999996" r="1" fill="black" />
  <circle cx="163.95280000000002" cy="41.68539999999996" r="1" fill="black" />
  <circle cx="164.12339999999995" cy="48.50669999999997" r="1" fill="black" />
  <circle cx="162.38430000000005" cy="55.436199999999985" r="1" fill="black" />
  <circle cx="164.0272" cy="55.436199999999985" r="1" fill="black" />
  <circle cx="163.7192" cy="62.365700000000004" r="1" fill="black" />
  <circle cx="161.62810000000002" cy="69.31369999999993" r="1" fill="black" />
  <circle cx="163.25369999999998" cy="69.32460000000003" r="1" fill="black" />
  <circle cx="162.68449999999996" cy="76.34219999999993" r="1" fill="black" />
  <circle cx="159.47490000000005" cy="83.1798" r="1" fill="black" />
  <circle cx="162.06600000000003" cy="83.44799999999998" r="1" fill="black" />
  <circle cx="161.452" cy="90.67129999999997" r="1" fill="black" />
  <circle cx="156.83119999999997" cy="96.30399999999997" r="1" fill="black" />
  <circle cx="160.9148" cy="98.03329999999994" r="1" fill="black" />
  <circle cx="157.34529999999995" cy="104.10789999999997" r="1" fill="black" />
  <circle cx="160.52660000000003" cy="105.55529999999999" r="1" fill="black" />
  <circle cx="156.5892" cy="110.47719999999993" r="1" fill="black" />
  <circle cx="160.35950000000003" cy="113.25839999999994" r="1" fill="black" />
  <circle cx="27.732899999999972" cy="0.7669999999999959" r="1" fill="black" />
  <circle cx="21.912799999999947" cy="0.8797999999999888" r="1" fill="black" />
  <circle cx="111.64930000000004" cy="336.16999999999996" r="1" fill="black" />
  <circle cx="113.17309999999998" cy="334.0679" r="1" fill="black" />
  <circle cx="112.64620000000002" cy="336.16999999999996" r="1" fill="black" />
  <circle cx="113.59410000000003" cy="332.06039999999996" r="1" fill="black" />
  <circle cx="113.928" cy="330.1553" r="1" fill="black" />
  <circle cx="114.1934" cy="328.3597" r="1" fill="black" />
  <circle cx="114.4094" cy="326.68129999999996" r="1" fill="black" />
  <circle cx="114.59450000000004" cy="325.1273" r="1" fill="black" />
  <circle cx="109.74360000000001" cy="345.2904" r="1" fill="black" />
  <circle cx="107.47140000000002" cy="347.53689999999995" r="1" fill="black" />
  <circle cx="110.56200000000001" cy="342.92729999999995" r="1" fill="black" />
  <circle cx="111.32730000000004" cy="340.6116999999999" r="1" fill="black" />
  <circle cx="111.1019" cy="340.6116999999999" r="1" fill="black" />
  <circle cx="112.02650000000006" cy="338.35529999999994" r="1" fill="black" />
  <circle cx="108.85350000000005" cy="347.53689999999995" r="1" fill="black" />
  <circle cx="107.87289999999996" cy="349.5028" r="1" fill="black" />
  <circle cx="106.78309999999999" cy="351.02419999999995" r="1" fill="black" />
  <circle cx="156.94600000000003" cy="119.57190000000003" r="1" fill="black" />
  <circle cx="160.48580000000004" cy="121.16399999999999" r="1" fill="black" />
  <circle cx="157.9864" cy="125.6155" r="1" fill="black" />
  <circle cx="157.16449999999998" cy="128.65359999999998" r="1" fill="black" />
  <circle cx="160.82950000000005" cy="129.16970000000003" r="1" fill="black" />
  <circle cx="158.21550000000002" cy="134.8293" r="1" fill="black" />
  <circle cx="161.31420000000003" cy="137.1735" r="1" fill="black" />
  <circle cx="159.1879" cy="141.5168" r="1" fill="black" />
  <circle cx="161.86400000000003" cy="145.07299999999998" r="1" fill="black" />
  <circle cx="161.0294" cy="146.44409999999993" r="1" fill="black" />
  <circle cx="158.82259999999997" cy="151.1046" r="1" fill="black" />
  <circle cx="158.37480000000005" cy="195.83979999999997" r="1" fill="black" />
  <circle cx="162.7459" cy="190.30269999999996" r="1" fill="black" />
  <circle cx="162.18619999999999" cy="195.0195" r="1" fill="black" />
  <circle cx="161.4991" cy="199.442" r="1" fill="black" />
  <circle cx="163.15449999999998" cy="185.22619999999995" r="1" fill="black" />
  <circle cx="155.94709999999998" cy="188.97879999999998" r="1" fill="black" />
  <circle cx="163.38819999999998" cy="179.72429999999997" r="1" fill="black" />
  <circle cx="157.88289999999995" cy="179.4688" r="1" fill="black" />
  <circle cx="163.423" cy="173.73169999999993" r="1" fill="black" />
  <circle cx="158.6209" cy="173.04909999999995" r="1" fill="black" />
  <circle cx="163.2351" cy="167.18279999999993" r="1" fill="black" />
  <circle cx="157.80359999999996" cy="167.8324" r="1" fill="black" />
  <circle cx="161.5104" cy="162.18319999999994" r="1" fill="black" />
  <circle cx="162.8773" cy="160.16499999999996" r="1" fill="black" />
  <circle cx="160.32759999999996" cy="156.34199999999998" r="1" fill="black" />
  <circle cx="162.4026" cy="152.76599999999996" r="1" fill="black" />
  <circle cx="158.62130000000002" cy="203.62249999999995" r="1" fill="black" />
  <circle cx="160.70860000000005" cy="203.63569999999993" r="1" fill="black" />
  <circle cx="159.83849999999995" cy="207.66599999999994" r="1" fill="black" />
  <circle cx="158.62570000000005" cy="211.54359999999997" r="1" fill="black" />
  <circle cx="158.91269999999997" cy="211.59849999999994" r="1" fill="black" />
  <circle cx="157.95500000000004" cy="215.49869999999999" r="1" fill="black" />
  <circle cx="156.96609999999998" cy="219.34489999999994" r="1" fill="black" />
  <circle cx="155.80700000000002" cy="223.03319999999997" r="1" fill="black" />
  <circle cx="155.94629999999995" cy="223.11569999999995" r="1" fill="black" />
  <circle cx="154.8963" cy="226.7894" r="1" fill="black" />
  <circle cx="153.81650000000002" cy="230.3446" r="1" fill="black" />
  <circle cx="152.70749999999998" cy="233.75959999999998" r="1" fill="black" />
  <circle cx="151.56989999999996" cy="237.01289999999995" r="1" fill="black" />
  <circle cx="150.40419999999995" cy="240.08299999999997" r="1" fill="black" />
  <circle cx="149.21079999999995" cy="242.94819999999993" r="1" fill="black" />
  <circle cx="147.9819" cy="245.63530000000003" r="1" fill="black" />
  <circle cx="146.70979999999997" cy="248.17099999999994" r="1" fill="black" />
  <circle cx="145.38639999999998" cy="250.58209999999997" r="1" fill="black" />
  <circle cx="143.9977" cy="252.8764" r="1" fill="black" />
  <circle cx="141.0303" cy="257.3346" r="1" fill="black" />
  <circle cx="139.42330000000004" cy="259.51429999999993" r="1" fill="black" />
  <circle cx="135.97310000000004" cy="263.86469999999997" r="1" fill="black" />
  <circle cx="134.20029999999997" cy="265.96399999999994" r="1" fill="black" />
  <circle cx="130.736" cy="269.83119999999997" r="1" fill="black" />
  <circle cx="126.2722" cy="274.2668" r="1" fill="black" />
  <circle cx="11.563099999999963" cy="4.463499999999954" r="1" fill="black" />
  <circle cx="122.34580000000005" cy="278.21590000000003" r="1" fill="black" />
  <circle cx="121.8315" cy="279.9759" r="1" fill="black" />
  <circle cx="120.56510000000003" cy="290.6912" r="1" fill="black" />
  <circle cx="120.40639999999996" cy="292.38839999999993" r="1" fill="black" />
  <circle cx="120.7183" cy="289.05920000000003" r="1" fill="black" />
  <circle cx="121.0113" cy="286.0461" r="1" fill="black" />
  <circle cx="121.15239999999994" cy="284.69269999999995" r="1" fill="black" />
  <circle cx="121.42740000000003" cy="282.36119999999994" r="1" fill="black" />
  <circle cx="120.24149999999997" cy="294.13699999999994" r="1" fill="black" />
  <circle cx="120.07209999999998" cy="295.91769999999997" r="1" fill="black" />
  <circle cx="119.89999999999998" cy="297.71119999999996" r="1" fill="black" />
  <circle cx="119.72640000000001" cy="299.4983" r="1" fill="black" />
  <circle cx="119.55340000000001" cy="301.2596" r="1" fill="black" />
  <circle cx="119.38229999999999" cy="302.9761" r="1" fill="black" />
  <circle cx="119.05290000000002" cy="306.1971" r="1" fill="black" />
  <circle cx="118.89760000000001" cy="307.6631" r="1" fill="black" />
  <circle cx="118.74850000000004" cy="309.0393" r="1" fill="black" />
  <circle cx="118.6046" cy="310.3384" r="1" fill="black" />
  <circle cx="118.32889999999998" cy="312.7567" r="1" fill="black" />
  <circle cx="118.17819999999995" cy="313.86019999999996" r="1" fill="black" />
  <circle cx="117.76089999999999" cy="315.7125" r="1" fill="black" />
  <circle cx="116.73770000000002" cy="317.5322" r="1" fill="black" />
  <circle cx="115.69269999999995" cy="319.45719999999994" r="1" fill="black" />
  <circle cx="115.15350000000001" cy="321.2863" r="1" fill="black" />
  <circle cx="114.76769999999999" cy="323.7052" r="1" fill="black" />
</svg>